{"title":"The Expendables TS XViD - SDTeam","uid":5768565,"size":404895961,"categoryP":"video","categoryS":"movies","magnet":"?xt=urn:btih:f9cec02a5330138a017eeca7fcdebb78a5c550f5&amp;dn=The+Expendables+TS+XViD+-+SDTeam&amp;tr=udp%3A%2F%2Ftracker.openbittorrent.com%3A80&amp;tr=udp%3A%2F%2Fopen.demonii.com%3A1337&amp;tr=udp%3A%2F%2Ftracker.coppersurfer.tk%3A6969&amp;tr=udp%3A%2F%2Fexodus.desync.com%3A6969","seeders":0,"leechers":0,"uploader":"bg2k9","files":30,"time":1282018638,"description":"GREETZ: UnDeaD - BadGirl2k9 - virusofsaten - foxyb - WICCYWOLF - lizzymwah1\n\nVISIT http://www.seedboxworld.biz/ for all ur seedbox needs!\n\nRELEASE NAME: The Expendables TS XViD - SDTeam\nRELEASED BY: UnDeaD &amp; BadGirl2k9\nSIZE: 386 MB\n\nLANGUAGE: English\nIMDb: http://www.imdb.com/title/tt1320253/\n\nPLOT: Barney Ross leads the &quot;Expendables&quot;, a band of highly \nskilled mercenaries including knife enthusiast Lee Christmas, \nmartial arts expert Yin Yang, heavy weapons specialist Hale Caesar, \ndemolitionist Toll Road and loose-cannon sniper Gunner Jensen. \nWhen the group is commissioned by the mysterious Mr. Church to \nassassinate the merciless dictator of a small South American island, \nBarney and Lee head to the remote locale to scout out their opposition. \nOnce there, they meet with local rebel Sandra and discover the true \nnature of the conflict engulfing the city. When they escape the island \nand Sandra stays behind, Ross must choose to either walk away and \nsave his own life - or attempt a suicidal rescue mission that might \njust save his soul.\n\nSCREENS: &lt;a href=&quot;\nhttp://i658.photobucket.com/albums/uu309/BadGirl2k9/screens/vlcsnap-2010-08-17-03h09m57s84.png&quot; rel=&quot;nofollow&quot; target=&quot;_NEW&quot;&gt;\nhttp://i658.photobucket.com/albums/uu309/BadGirl2k9/screens/vlcsnap-2010-08-17-03h09m57s84.png&lt;/a&gt; &lt;a href=&quot;\nhttp://i658.photobucket.com/albums/uu309/BadGirl2k9/screens/vlcsnap-2010-08-17-03h10m09s197.png&quot; rel=&quot;nofollow&quot; target=&quot;_NEW&quot;&gt;\nhttp://i658.photobucket.com/albums/uu309/BadGirl2k9/screens/vlcsnap-2010-08-17-03h10m09s197.png&lt;/a&gt; &lt;a href=&quot;\nhttp://i658.photobucket.com/albums/uu309/BadGirl2k9/screens/vlcsnap-2010-08-17-03h10m35s136.png&quot; rel=&quot;nofollow&quot; target=&quot;_NEW&quot;&gt;\nhttp://i658.photobucket.com/albums/uu309/BadGirl2k9/screens/vlcsnap-2010-08-17-03h10m35s136.png&lt;/a&gt;\n\nGeneral\nFormat                           : AVI\nFormat/Info                      : Audio Video Interleave\nFile size                        : 386 MiB\nDuration                         : 1h 34mn\nOverall bit rate                 : 572 Kbps\nWriting application              : MEncoder SVN-r22963\nWriting library                  : MPlayer\n\nVideo\nID                               : 0\nFormat                           : MPEG-4 Visual\nFormat profile                   : Simple@L3\nFormat settings, BVOP            : No\nFormat settings, QPel            : No\nFormat settings, GMC             : No warppoints\nFormat settings, Matrix          : Default (H.263)\nCodec ID                         : XVID\nCodec ID/Hint                    : XviD\nDuration                         : 1h 34mn\nBit rate                         : 496 Kbps\nWidth                            : 512 pixels\nHeight                           : 208 pixels\nDisplay aspect ratio             : 2.462\nFrame rate                       : 20.000 fps\nResolution                       : 8 bits\nColorimetry                      : 4:2:0\nScan type                        : Progressive\nBits/(Pixel*Frame)               : 0.233\nStream size                      : 335 MiB (87%)\nWriting library                  : XviD 1.1.2 (UTC 2006-11-01)\n\nAudio\nID                               : 1\nFormat                           : MPEG Audio\nFormat version                   : Version 1\nFormat profile                   : Layer 3\nCodec ID                         : 55\nCodec ID/Hint                    : MP3\nDuration                         : 1h 34mn\nBit rate mode                    : Constant\nBit rate                         : 64.0 Kbps\nChannel(s)                       : 2 channels\nSampling rate                    : 44.1 KHz\nStream size                      : 43.2 MiB (11%)\nAlignment                        : Aligned on interleaves\nInterleave, duration             : 26 ms (0.52 video frame)\nInterleave, preload duration     : 522 ms\nWriting library                  : LAMEUUULAME3.97\n\n\nGROUP NOTE: Big thanks to seedboxworld.biz for the seedbox!\n\n","torrent":{"xt":"urn:btih:f9cec02a5330138a017eeca7fcdebb78a5c550f5","amp;dn":"The+Expendables+TS+XViD+-+SDTeam","amp;tr":["udp%3A%2F%2Ftracker.openbittorrent.com%3A80","udp%3A%2F%2Fopen.demonii.com%3A1337","udp%3A%2F%2Ftracker.coppersurfer.tk%3A6969","udp%3A%2F%2Fexodus.desync.com%3A6969"],"infoHash":"f9cec02a5330138a017eeca7fcdebb78a5c550f5","infoHashBuffer":{"type":"Buffer","data":[249,206,192,42,83,48,19,138,1,126,236,167,252,222,187,120,165,197,80,245]},"announce":[],"urlList":[]}}